<?xml version="1.0" encoding="utf-8"?>
<!-- Generator: Adobe Illustrator 24.3.0, SVG Export Plug-In . SVG Version: 6.00 Build 0)  -->
<svg version="1.1" id="Layer_1" xmlns="http://www.w3.org/2000/svg" xmlns:xlink="http://www.w3.org/1999/xlink" x="0px" y="0px"
	 viewBox="0 0 69.1 85.5" style="enable-background:new 0 0 69.1 85.5;" xml:space="preserve">
<style type="text/css">
	.st0{fill:none;stroke:#3A5751;stroke-width:5;stroke-miterlimit:10;}
</style>
<g id="Group_4">
	<path id="Rectangle_2" class="st0" d="M3.1,41L3.1,41c6.6-27.1,34-43.6,61.1-37c0,0,0,0,0,0l0,0l1.9,0.5l0,0
		c-6.6,27.1-34,43.6-61.1,37c0,0,0,0,0,0L3.1,41z"/>
</g>
<g id="Group_4-2">
	<path id="Rectangle_2-2" class="st0" d="M66.1,81.1L66.1,81.1C59.4,54,32.1,37.4,5,44.1c0,0,0,0,0,0l0,0L3,44.5l0,0
		c6.6,27.1,34,43.6,61,37c0,0,0,0,0,0L66.1,81.1z"/>
</g>
</svg>
