<svg xmlns="http://www.w3.org/2000/svg" xmlns:xlink="http://www.w3.org/1999/xlink" width="1069.493" height="471.456" viewBox="0 0 1069.493 471.456">
  <defs>
    <linearGradient id="linear-gradient" x1="0.5" y1="0.2" x2="0.5" y2="0.936" gradientUnits="objectBoundingBox">
      <stop offset="0" stop-color="#f5dbd9"/>
      <stop offset="0.511" stop-color="#f5dbd9" stop-opacity="0.8"/>
      <stop offset="1" stop-color="#f5dbd9" stop-opacity="0.129"/>
    </linearGradient>
  </defs>
  <g id="Group_66" data-name="Group 66" transform="translate(-5776 39.956)" opacity="0.586">
    <g id="Group_65" data-name="Group 65">
      <path id="Union_4" data-name="Union 4" d="M-3915-307.817l1069.493.277-.067-413.6s-132.651,88.736-247.884,81.859c-101.9-6.081-177.607-111.636-271.158-119.133-199.045-15.951-181.837,88.979-341.394,95.12S-3915-779-3915-779Z" transform="translate(9691 739.04)" fill="url(#linear-gradient)"/>
      <g id="Group_60" data-name="Group 60" transform="matrix(0.469, -0.883, 0.883, 0.469, -199.796, 2465.483)" opacity="0.465" style="isolation: isolate">
        <path id="Union_2" data-name="Union 2" d="M.168,62.868a30.555,30.555,0,0,1,21.18-29.08A30.556,30.556,0,0,1,0,4.654V0A30.548,30.548,0,0,1,30.17,25.765,30.551,30.551,0,0,1,60.269.432V5.087A30.553,30.553,0,0,1,39.844,33.912,30.553,30.553,0,0,1,60.269,62.737v4.655A30.549,30.549,0,0,1,30.231,42.4,30.55,30.55,0,0,1,.168,67.522Z" transform="translate(4951.062 4184.247)" fill="#a3bfdb"/>
      </g>
      <g id="Group_64" data-name="Group 64" transform="matrix(0.469, -0.883, 0.883, 0.469, 726.346, 2462.549)" opacity="0.546" style="isolation: isolate">
        <path id="Union_2-2" data-name="Union 2" d="M.157,58.856A28.606,28.606,0,0,1,19.986,31.632,28.606,28.606,0,0,1,0,4.357V0A28.6,28.6,0,0,1,28.245,24.119,28.6,28.6,0,0,1,56.424.405V4.762A28.606,28.606,0,0,1,37.3,31.748a28.606,28.606,0,0,1,19.12,26.987v4.357A28.6,28.6,0,0,1,28.3,39.7,28.6,28.6,0,0,1,.157,63.213Z" transform="translate(4951.062 4184.247)" fill="#a3bfdb"/>
      </g>
      <g id="Group_67" data-name="Group 67" transform="matrix(0.469, -0.883, 0.883, 0.469, 306.901, 2416.473)" opacity="0.546" style="isolation: isolate">
        <path id="Union_2-3" data-name="Union 2" d="M.114,42.454a20.634,20.634,0,0,1,14.3-19.637A20.635,20.635,0,0,1,0,3.143V0A20.63,20.63,0,0,1,20.373,17.4,20.63,20.63,0,0,1,40.7.292V3.435A20.633,20.633,0,0,1,26.907,22.9,20.634,20.634,0,0,1,40.7,42.366v3.143A20.629,20.629,0,0,1,20.414,28.632,20.63,20.63,0,0,1,.114,45.6Z" transform="translate(4951.062 4184.247)" fill="#a3bfdb"/>
      </g>
      <path id="Path_26" data-name="Path 26" d="M16.209.006l.018.653A15.438,15.438,0,0,1,.025,16.531l-.018-.653A15.438,15.438,0,0,1,16.209.006Z" transform="matrix(-0.819, 0.574, -0.574, -0.819, 6329.346, -21.802)" fill="#385c56" opacity="0.615"/>
      <path id="Path_27" data-name="Path 27" d="M0,0A17.637,17.637,0,0,1,17.113,16.782l.018.653A17.637,17.637,0,0,1,.018.653Z" transform="matrix(-0.819, 0.574, -0.574, -0.819, 6316.181, -12.324)" fill="#385c56" opacity="0.615"/>
    </g>
  </g>
</svg>
