<svg width="83" height="66" viewBox="0 0 83 66" fill="none" xmlns="http://www.w3.org/2000/svg">
<path d="M8.3 12.375V20.625C8.3 22.8937 6.4325 24.75 4.15 24.75H0V41.25H4.15C6.4325 41.25 8.3 43.1063 8.3 45.375V53.625C8.3 60.4313 13.9025 66 20.75 66H33.2V57.75H20.75C18.4675 57.75 16.6 55.8937 16.6 53.625V45.375C16.6 40.0125 13.114 35.3925 8.3 33.7013V32.2987C13.114 30.6075 16.6 25.9875 16.6 20.625V12.375C16.6 10.1062 18.4675 8.25 20.75 8.25H33.2V0H20.75C13.9025 0 8.3 5.56875 8.3 12.375ZM78.85 24.75C76.5675 24.75 74.7 22.8937 74.7 20.625V12.375C74.7 5.56875 69.0975 0 62.25 0H49.8V8.25H62.25C64.5325 8.25 66.4 10.1062 66.4 12.375V20.625C66.4 25.9875 69.886 30.6075 74.7 32.2987V33.7013C69.886 35.3925 66.4 39.9712 66.4 45.375V53.625C66.4 55.8937 64.5325 57.75 62.25 57.75H49.8V66H62.25C69.0975 66 74.7 60.4313 74.7 53.625V45.375C74.7 43.1063 76.5675 41.25 78.85 41.25H83V24.75H78.85Z" fill="#3A5751"/>
</svg>
