<svg width="70" height="69" viewBox="0 0 70 69" fill="none" xmlns="http://www.w3.org/2000/svg">
<path fill-rule="evenodd" clip-rule="evenodd" d="M34.5342 0C15.4729 0 0.0341797 15.8293 0.0341797 35.3726C0.0341797 51.025 9.90981 64.2456 23.6236 68.9324C25.3486 69.2419 25.9954 68.1808 25.9954 67.2522C25.9954 66.4121 25.9523 63.6265 25.9523 60.6641C17.2842 62.3001 15.0417 58.4975 14.3517 56.5078C13.9636 55.4908 12.2817 52.3515 10.8154 51.5114C9.60793 50.8482 7.88293 49.2122 10.7723 49.168C13.4892 49.1238 15.4298 51.7325 16.0767 52.7937C19.1817 58.1438 24.1411 56.6404 26.1248 55.7119C26.4267 53.4127 27.3323 51.8651 28.3242 50.9808C20.6479 50.0965 12.6267 47.0456 12.6267 33.5156C12.6267 29.6688 13.9636 26.4853 16.1629 24.0092C15.8179 23.1249 14.6104 19.4992 16.5079 14.6354C16.5079 14.6354 19.3973 13.7069 25.9954 18.2611C28.7554 17.4652 31.6879 17.0673 34.6204 17.0673C37.5529 17.0673 40.4854 17.4652 43.2454 18.2611C49.8436 13.6627 52.7329 14.6354 52.7329 14.6354C54.6304 19.4992 53.4229 23.1249 53.0779 24.0092C55.2773 26.4853 56.6142 29.6246 56.6142 33.5156C56.6142 47.0898 48.5498 50.0965 40.8736 50.9808C42.1242 52.0862 43.2023 54.2086 43.2023 57.5248C43.2023 62.2558 43.1592 66.0584 43.1592 67.2522C43.1592 68.1808 43.8061 69.2862 45.5311 68.9324C52.3798 66.5616 58.3311 62.0486 62.5472 56.0284C66.7634 50.0082 69.0321 42.784 69.0342 35.3726C69.0342 15.8293 53.5954 0 34.5342 0Z" fill="#3A5751"/>
</svg>
