<svg width="51" height="73" viewBox="0 0 51 73" fill="none" xmlns="http://www.w3.org/2000/svg">
<path d="M43.8281 6.20514e-08C45.6454 -0.000255605 47.395 0.789557 48.7233 2.20982C50.0517 3.63008 50.8597 5.57488 50.9841 7.65117L51 8.21332V64.7867C51.0002 66.8678 50.3106 68.8715 49.0704 70.3927C47.8302 71.914 46.132 72.8393 44.319 72.9817L43.8281 73H7.17188C5.3546 73.0003 3.605 72.2104 2.27666 70.7902C0.948327 69.3699 0.140321 67.4251 0.0159379 65.3488L5.41834e-08 64.7867V8.21332C-0.000223195 6.13215 0.689441 4.12849 1.92961 2.60726C3.16979 1.08604 4.86798 0.160697 6.681 0.0182523L7.17188 6.20514e-08H43.8281ZM43.8281 5.47555H7.17188C6.59418 5.47558 6.03604 5.71517 5.60066 6.15001C5.16528 6.58486 4.88213 7.18555 4.80356 7.84098L4.78125 8.21332V64.7867C4.78125 66.1738 5.68012 67.32 6.84675 67.4989L7.17188 67.5245H43.8281C44.4058 67.5244 44.964 67.2848 45.3993 66.85C45.8347 66.4151 46.1179 65.8145 46.1964 65.159L46.2188 64.7867V8.21332C46.2187 7.55174 46.0095 6.91254 45.6298 6.41394C45.2501 5.91535 44.7256 5.59108 44.1532 5.5011L43.8281 5.47555ZM9.5625 50.1889C9.5625 49.4628 9.81437 48.7664 10.2627 48.253C10.711 47.7395 11.3191 47.4511 11.9531 47.4511H39.0469C39.6809 47.4511 40.289 47.7395 40.7373 48.253C41.1856 48.7664 41.4375 49.4628 41.4375 50.1889C41.4375 50.915 41.1856 51.6113 40.7373 52.1248C40.289 52.6382 39.6809 52.9266 39.0469 52.9266H11.9531C11.3191 52.9266 10.711 52.6382 10.2627 52.1248C9.81437 51.6113 9.5625 50.915 9.5625 50.1889ZM9.5625 20.9859C9.5625 20.2598 9.81437 19.5635 10.2627 19.0501C10.711 18.5366 11.3191 18.2482 11.9531 18.2482H39.0469C39.6809 18.2482 40.289 18.5366 40.7373 19.0501C41.1856 19.5635 41.4375 20.2598 41.4375 20.9859C41.4375 21.7121 41.1856 22.4084 40.7373 22.9218C40.289 23.4353 39.6809 23.7237 39.0469 23.7237H11.9531C11.3191 23.7237 10.711 23.4353 10.2627 22.9218C9.81437 22.4084 9.5625 21.7121 9.5625 20.9859ZM9.5625 35.5874C9.5625 34.8613 9.81437 34.1649 10.2627 33.6515C10.711 33.1381 11.3191 32.8496 11.9531 32.8496H39.0469C39.6809 32.8496 40.289 33.1381 40.7373 33.6515C41.1856 34.1649 41.4375 34.8613 41.4375 35.5874C41.4375 36.3135 41.1856 37.0099 40.7373 37.5233C40.289 38.0367 39.6809 38.3252 39.0469 38.3252H11.9531C11.3191 38.3252 10.711 38.0367 10.2627 37.5233C9.81437 37.0099 9.5625 36.3135 9.5625 35.5874V35.5874Z" fill="#3A5751"/>
</svg>
