<svg width="20" height="21" viewBox="0 0 20 21" fill="none" xmlns="http://www.w3.org/2000/svg">
<path d="M17.14 5.5C17.8985 5.5 18.626 5.80132 19.1623 6.33767C19.6987 6.87403 20 7.60148 20 8.36V12.14C20 12.5156 19.926 12.8875 19.7823 13.2345C19.6386 13.5815 19.4279 13.8967 19.1623 14.1623C18.8967 14.4279 18.5815 14.6386 18.2345 14.7823C17.8875 14.926 17.5156 15 17.14 15H10C10 15.39 10.32 15.96 10.71 15.96H15V17.64C15 18.3985 14.6987 19.126 14.1623 19.6623C13.626 20.1987 12.8985 20.5 12.14 20.5H7.86C7.10148 20.5 6.37403 20.1987 5.83767 19.6623C5.30132 19.126 5 18.3985 5 17.64V13.89C5 13.5149 5.07405 13.1435 5.2179 12.797C5.36175 12.4506 5.57257 12.136 5.83828 11.8712C6.10399 11.6064 6.41935 11.3967 6.76628 11.2541C7.11321 11.1114 7.48489 11.0387 7.86 11.04H13.11C13.4851 11.04 13.8565 10.966 14.203 10.8221C14.5494 10.6783 14.864 10.4674 15.1288 10.2017C15.3936 9.93602 15.6033 9.62065 15.7459 9.27372C15.8886 8.92679 15.9613 8.55511 15.96 8.18V5.5H17.14ZM12.86 17.29C12.46 17.29 12.14 17.59 12.14 18.18C12.14 18.77 12.46 18.89 12.86 18.89C12.9532 18.89 13.0456 18.8716 13.1317 18.836C13.2178 18.8003 13.2961 18.748 13.362 18.682C13.428 18.6161 13.4803 18.5378 13.516 18.4517C13.5516 18.3656 13.57 18.2732 13.57 18.18C13.57 17.59 13.25 17.29 12.86 17.29ZM2.86 15.5C2.10148 15.5 1.37403 15.1987 0.837675 14.6623C0.301321 14.126 0 13.3985 0 12.64V8.86C0 8.48442 0.0739761 8.11252 0.217705 7.76553C0.361433 7.41853 0.572099 7.10325 0.837675 6.83767C1.37403 6.30132 2.10148 6 2.86 6H10C10 5.61 9.68 5.04 9.29 5.04H5V3.36C5 2.60148 5.30132 1.87403 5.83767 1.33767C6.37403 0.801321 7.10148 0.5 7.86 0.5H12.14C12.5156 0.5 12.8875 0.573976 13.2345 0.717705C13.5815 0.861433 13.8967 1.0721 14.1623 1.33767C14.4279 1.60325 14.6386 1.91853 14.7823 2.26553C14.926 2.61252 15 2.98442 15 3.36V7.11C15 7.48511 14.926 7.85653 14.7821 8.20296C14.6383 8.54939 14.4274 8.86402 14.1617 9.1288C13.896 9.39358 13.5807 9.6033 13.2337 9.74593C12.8868 9.88857 12.5151 9.96132 12.14 9.96H6.89C6.51489 9.96 6.14347 10.034 5.79704 10.1779C5.45061 10.3217 5.13598 10.5326 4.8712 10.7983C4.60642 11.064 4.3967 11.3793 4.25407 11.7263C4.11143 12.0732 4.03868 12.4449 4.04 12.82V15.5H2.86ZM7.14 3.71C7.54 3.71 7.86 3.41 7.86 2.82C7.86 2.23 7.54 2.11 7.14 2.11C6.75 2.11 6.43 2.23 6.43 2.82C6.43 3.41 6.75 3.71 7.14 3.71Z" fill="#FAF4ED"/>
</svg>
