<svg width="24" height="21" viewBox="0 0 24 21" fill="none" xmlns="http://www.w3.org/2000/svg">
<path d="M0 2.53439V14.1209C0 15.5202 1.17478 16.6553 2.62516 16.6553H14.4518L18.6077 21V16.6549H21.3748C22.8244 16.6549 24 15.5198 24 14.1206V2.53439C23.9996 1.13478 22.8244 0 21.3748 0H2.62516C1.17478 0 0 1.13478 0 2.53439ZM16.7173 8.32728C16.7173 7.42778 17.4725 6.69822 18.4049 6.69822C19.3373 6.69822 20.0925 7.42778 20.0925 8.32728C20.0925 9.22756 19.3373 9.95672 18.4049 9.95672C17.4725 9.95672 16.7173 9.22794 16.7173 8.32728ZM10.3122 8.32728C10.3122 7.42778 11.0682 6.69822 11.9998 6.69822C12.9314 6.69822 13.6874 7.42778 13.6874 8.32728C13.6874 9.22756 12.9314 9.95672 11.9998 9.95672C11.0682 9.95672 10.3122 9.22794 10.3122 8.32728V8.32728ZM3.90753 8.32728C3.90753 7.42778 4.66352 6.69822 5.59511 6.69822C6.52749 6.69822 7.28268 7.42778 7.28268 8.32728C7.28268 9.22756 6.52749 9.95672 5.59511 9.95672C4.66312 9.95711 3.90753 9.22794 3.90753 8.32728Z" fill="#F7F1EC"/>
</svg>
