<svg width="18" height="24" viewBox="0 0 18 24" fill="none" xmlns="http://www.w3.org/2000/svg">
<path d="M4.50195 0H7.07995V1.078H5.57995V2.156H7.07995V3.234H4.50195V0ZM7.59495 0H10.174V0.938H8.67395V1.125H10.174V3.281H7.59495V2.297H9.09495V2.109H7.59495V0ZM10.69 0H13.267V0.938H11.767V1.125H13.267V3.281H10.69V2.297H12.19V2.109H10.69V0Z" fill="#FAF4ED"/>
<path fill-rule="evenodd" clip-rule="evenodd" d="M8.991 24L2.047 22.072L0 4.717H18L15.954 22.07L8.991 24ZM4.047 12.573L4.238 14.701H11.615L11.368 17.461L8.994 18.103H8.992L6.622 17.463L6.47 15.766H4.333L4.631 19.108L8.991 20.318L13.358 19.108L13.89 13.144L13.942 12.573L14.326 8.264H3.664L3.858 10.393H11.994L11.8 12.573H4.047V12.573Z" fill="#FAF4ED"/>
</svg>
