<svg width="56" height="49" viewBox="0 0 56 49" fill="none" xmlns="http://www.w3.org/2000/svg">
<path d="M0 14.8862V39.2C0 41.7991 0.98333 44.2918 2.73367 46.1296C4.48401 47.9675 6.85798 49 9.33333 49H46.6667C49.142 49 51.516 47.9675 53.2663 46.1296C55.0167 44.2918 56 41.7991 56 39.2V9.8C56 7.20088 55.0167 4.70821 53.2663 2.87035C51.516 1.0325 49.142 0 46.6667 0H9.33333C6.85798 0 4.48401 1.0325 2.73367 2.87035C0.98333 4.70821 0 7.20088 0 9.8V14.8862ZM9.33333 4.9H46.6667C47.9043 4.9 49.0913 5.41625 49.9665 6.33518C50.8417 7.25411 51.3333 8.50044 51.3333 9.8V13.426L28 26.6168L4.66667 13.426V9.8C4.66667 8.50044 5.15833 7.25411 6.0335 6.33518C6.90867 5.41625 8.09566 4.9 9.33333 4.9V4.9ZM4.66667 18.9924L26.894 31.556C27.2339 31.7481 27.6139 31.8487 28 31.8487C28.3861 31.8487 28.7661 31.7481 29.106 31.556L51.3333 18.9924V39.2C51.3333 40.4996 50.8417 41.7459 49.9665 42.6648C49.0913 43.5838 47.9043 44.1 46.6667 44.1H9.33333C8.09566 44.1 6.90867 43.5838 6.0335 42.6648C5.15833 41.7459 4.66667 40.4996 4.66667 39.2V18.9924Z" fill="#3A5751"/>
</svg>
