<svg width="16" height="21" viewBox="0 0 16 21" fill="none" xmlns="http://www.w3.org/2000/svg">
<path d="M5.37 15.51C2.28 16.37 7.24 18.15 11.17 16.51C10.7886 16.3617 10.4206 16.181 10.07 15.97C8.70557 16.2806 7.29616 16.3416 5.91 16.15C4.6 16 5.37 15.51 5.37 15.51V15.51ZM10.7 13.83C8.94004 14.2127 7.12874 14.3006 5.34 14.09C4.03 13.95 4.89 13.32 4.89 13.32C1.49 14.44 6.78 15.72 11.53 14.32C11.2212 14.2185 10.938 14.0514 10.7 13.83V13.83ZM12.52 4.1C12.52 4.1 5.65 5.81 8.93 9.59C9.05797 9.74341 9.15333 9.92129 9.21025 10.1128C9.26717 10.3043 9.28446 10.5054 9.26106 10.7038C9.23767 10.9022 9.17407 11.0937 9.07417 11.2667C8.97427 11.4397 8.84015 11.5906 8.68 11.71C8.68 11.71 11.14 10.44 10.01 8.85C8.88 7.26 8.15 6.63 12.52 4.1Z" fill="#FAF4ED"/>
<path d="M14.13 17.14C14.13 17.14 14.69 17.6 13.5 17.96C11.23 18.65 4.06999 18.86 2.07999 17.96C1.35999 17.65 2.69999 17.22 3.07999 17.13C3.30524 17.0719 3.53741 17.0449 3.76999 17.05C2.96999 16.49 -1.38001 18.15 1.55999 18.63C9.60999 20 16.2 18.07 14.13 17.14V17.14ZM11.37 12.26C11.6641 12.074 11.9716 11.9102 12.29 11.77C12.29 11.77 10.78 12.04 9.28999 12.17C7.68772 12.3246 6.07513 12.3414 4.46999 12.22C2.08999 11.91 5.73999 11 5.73999 11C4.64159 10.9915 3.55742 11.2488 2.57999 11.75C0.519992 12.78 7.66999 13.23 11.37 12.26V12.26ZM12.28 14.7C12.2581 14.734 12.2312 14.7643 12.2 14.79C17.2 13.47 15.38 10.14 12.98 10.98C12.8476 11.0287 12.7327 11.1157 12.65 11.23C12.65 11.23 12.79 11.18 13.08 11.11C14.3 10.86 16 12.74 12.28 14.7V14.7ZM7.99999 11C7.25999 9.33 4.73999 7.86 7.99999 5.29C12.09 2.08 9.99999 0 9.99999 0C10.84 3.31 6.99999 4.31 5.65999 6.37C4.72999 7.78 6.12999 9.29 7.99999 11Z" fill="#FAF4ED"/>
<path d="M12.41 19.32C9.38876 19.8373 6.30571 19.8845 3.27002 19.46C3.27002 19.46 3.73002 19.84 6.11002 19.99C9.72002 20.22 15.26 19.87 15.4 18.16C15.4 18.16 15.14 18.8 12.41 19.32V19.32Z" fill="#FAF4ED"/>
</svg>
