<svg width="46" height="46" viewBox="0 0 46 46" fill="none" xmlns="http://www.w3.org/2000/svg">
<path fill-rule="evenodd" clip-rule="evenodd" d="M0.0833136 3.91218C0.0833136 2.89662 0.486742 1.92266 1.20485 1.20455C1.92296 0.486442 2.89692 0.0830129 3.91248 0.0830129H42.0833C42.5866 0.0821909 43.0851 0.180644 43.5503 0.372735C44.0155 0.564826 44.4382 0.846783 44.7942 1.20246C45.1503 1.55814 45.4327 1.98056 45.6253 2.44553C45.8179 2.9105 45.9169 3.4089 45.9166 3.91218V42.083C45.9172 42.5864 45.8185 43.0849 45.6262 43.5501C45.4338 44.0153 45.1517 44.438 44.7958 44.7941C44.44 45.1501 44.0174 45.4325 43.5524 45.6251C43.0873 45.8176 42.5888 45.9166 42.0854 45.9163H3.91248C3.40945 45.9163 2.91135 45.8172 2.44664 45.6247C1.98193 45.4321 1.55971 45.1499 1.20411 44.7941C0.848515 44.4383 0.566504 44.0159 0.374193 43.5511C0.181882 43.0863 0.0830399 42.5881 0.0833136 42.0851V3.91218ZM18.225 17.558H24.4312V20.6747C25.3271 18.883 27.6187 17.2705 31.0625 17.2705C37.6646 17.2705 39.2291 20.8393 39.2291 27.3872V39.5163H32.5479V28.8788C32.5479 25.1497 31.6521 23.0455 29.3771 23.0455C26.2208 23.0455 24.9083 25.3143 24.9083 28.8788V39.5163H18.225V17.558ZM6.76665 39.2309H13.45V17.2705H6.76665V39.2288V39.2309ZM14.4062 10.108C14.4188 10.6802 14.317 11.2492 14.1067 11.7816C13.8965 12.3139 13.582 12.7989 13.1817 13.2081C12.7815 13.6172 12.3035 13.9423 11.7759 14.1643C11.2483 14.3862 10.6817 14.5005 10.1094 14.5005C9.53698 14.5005 8.97037 14.3862 8.44278 14.1643C7.91519 13.9423 7.43725 13.6172 7.037 13.2081C6.63675 12.7989 6.32226 12.3139 6.11198 11.7816C5.9017 11.2492 5.79988 10.6802 5.81248 10.108C5.83721 8.98479 6.30078 7.91591 7.10391 7.13028C7.90703 6.34464 8.98586 5.90472 10.1094 5.90472C11.2328 5.90472 12.3117 6.34464 13.1148 7.13028C13.9179 7.91591 14.3815 8.98479 14.4062 10.108V10.108Z" fill="#3A5751"/>
</svg>
