<svg width="24" height="24" viewBox="0 0 24 24" fill="none" xmlns="http://www.w3.org/2000/svg">
<path d="M19.14 7.5C19.8985 7.5 20.626 7.80132 21.1623 8.33767C21.6987 8.87403 22 9.60148 22 10.36V14.14C22 14.5156 21.926 14.8875 21.7823 15.2345C21.6386 15.5815 21.4279 15.8967 21.1623 16.1623C20.8967 16.4279 20.5815 16.6386 20.2345 16.7823C19.8875 16.926 19.5156 17 19.14 17H12C12 17.39 12.32 17.96 12.71 17.96H17V19.64C17 20.3985 16.6987 21.126 16.1623 21.6623C15.626 22.1987 14.8985 22.5 14.14 22.5H9.86C9.10148 22.5 8.37403 22.1987 7.83767 21.6623C7.30132 21.126 7 20.3985 7 19.64V15.89C7 15.5149 7.07405 15.1435 7.2179 14.797C7.36175 14.4506 7.57257 14.136 7.83828 13.8712C8.10399 13.6064 8.41935 13.3967 8.76628 13.2541C9.11321 13.1114 9.48489 13.0387 9.86 13.04H15.11C15.4851 13.04 15.8565 12.966 16.203 12.8221C16.5494 12.6783 16.864 12.4674 17.1288 12.2017C17.3936 11.936 17.6033 11.6207 17.7459 11.2737C17.8886 10.9268 17.9613 10.5551 17.96 10.18V7.5H19.14ZM14.86 19.29C14.46 19.29 14.14 19.59 14.14 20.18C14.14 20.77 14.46 20.89 14.86 20.89C14.9532 20.89 15.0456 20.8716 15.1317 20.836C15.2178 20.8003 15.2961 20.748 15.362 20.682C15.428 20.6161 15.4803 20.5378 15.516 20.4517C15.5516 20.3656 15.57 20.2732 15.57 20.18C15.57 19.59 15.25 19.29 14.86 19.29ZM4.86 17.5C4.10148 17.5 3.37403 17.1987 2.83767 16.6623C2.30132 16.126 2 15.3985 2 14.64V10.86C2 10.4844 2.07398 10.1125 2.2177 9.76553C2.36143 9.41853 2.5721 9.10325 2.83767 8.83767C3.37403 8.30132 4.10148 8 4.86 8H12C12 7.61 11.68 7.04 11.29 7.04H7V5.36C7 4.60148 7.30132 3.87403 7.83767 3.33767C8.37403 2.80132 9.10148 2.5 9.86 2.5H14.14C14.5156 2.5 14.8875 2.57398 15.2345 2.7177C15.5815 2.86143 15.8967 3.0721 16.1623 3.33767C16.4279 3.60325 16.6386 3.91853 16.7823 4.26553C16.926 4.61252 17 4.98442 17 5.36V9.11C17 9.48511 16.926 9.85653 16.7821 10.203C16.6383 10.5494 16.4274 10.864 16.1617 11.1288C15.896 11.3936 15.5807 11.6033 15.2337 11.7459C14.8868 11.8886 14.5151 11.9613 14.14 11.96H8.89C8.51489 11.96 8.14347 12.034 7.79704 12.1779C7.45061 12.3217 7.13598 12.5326 6.8712 12.7983C6.60642 13.064 6.3967 13.3793 6.25407 13.7263C6.11143 14.0732 6.03868 14.4449 6.04 14.82V17.5H4.86ZM9.14 5.71C9.54 5.71 9.86 5.41 9.86 4.82C9.86 4.23 9.54 4.11 9.14 4.11C8.75 4.11 8.43 4.23 8.43 4.82C8.43 5.41 8.75 5.71 9.14 5.71Z" fill="white"/>
</svg>
