<svg id="Layer_1" data-name="Layer 1" xmlns="http://www.w3.org/2000/svg" viewBox="0 0 400 400"><defs><style>.cls-1{fill:#f7c186;}</style></defs><g id="Group_41" data-name="Group 41"><path id="Rectangle_14" data-name="Rectangle 14" class="cls-1" d="M57.44,194.53l5.13-3.33a111.1,111.1,0,0,1,153.69,32.65h0l-5.13,3.33A111.1,111.1,0,0,1,57.44,194.54Z"/><path id="Rectangle_15" data-name="Rectangle 15" class="cls-1" d="M234.1,79.78l5.13-3.33h0a111.11,111.11,0,0,1-32.65,153.69l-5.13,3.33h0A111.1,111.1,0,0,1,234.1,79.78Z"/><path id="Rectangle_14-2" data-name="Rectangle 14-2" class="cls-1" d="M197,205.44l5.13-3.33h0A111.1,111.1,0,0,1,169.49,355.8l-5.13,3.33h0A111.11,111.11,0,0,1,197,205.44Z"/><path id="Rectangle_15-2" data-name="Rectangle 15-2" class="cls-1" d="M187.33,211.73l5.13-3.33A111.1,111.1,0,0,1,346.15,241h0L341,244.38a111.1,111.1,0,0,1-153.69-32.65Z"/></g></svg>