<svg id="Layer_1" data-name="Layer 1" xmlns="http://www.w3.org/2000/svg" viewBox="0 0 400 400"><defs><style>.cls-1{fill:#fcdad8;}</style></defs><g id="Group_43" data-name="Group 43"><path id="Rectangle_14" data-name="Rectangle 14" class="cls-1" d="M118.32,41.59h0a137.9,137.9,0,0,1,76.2,179.52h0l-2.07,5.12h0a137.91,137.91,0,0,1-76.2-179.52l2.07-5.12Z"/><path id="Rectangle_15" data-name="Rectangle 15" class="cls-1" d="M354.78,137.13h0l-2.07,5.11a137.9,137.9,0,0,1-179.52,76.2h0l2.07-5.11a137.9,137.9,0,0,1,179.52-76.2Z"/><path id="Rectangle_14-2" data-name="Rectangle 14-2" class="cls-1" d="M205,195.2h0l-2.07,5.11A137.9,137.9,0,0,1,23.4,276.52h0l2.07-5.12A137.91,137.91,0,0,1,205,195.2Z"/><path id="Rectangle_15-2" data-name="Rectangle 15-2" class="cls-1" d="M185.73,187.42h0a137.9,137.9,0,0,1,76.2,179.52h0l-2.07,5.11h0a137.9,137.9,0,0,1-76.2-179.52l2.07-5.11Z"/></g></svg>