<svg width="21" height="19" viewBox="0 0 21 19" fill="none" xmlns="http://www.w3.org/2000/svg">
<path d="M18.75 0H2.25C1.00781 0 0 0.91183 0 2.03571V16.9643C0 18.0882 1.00781 19 2.25 19H18.75C19.9922 19 21 18.0882 21 16.9643V2.03571C21 0.91183 19.9922 0 18.75 0ZM11.4281 14.8183C11.4281 16.6674 10.2281 17.5114 8.47969 17.5114C6.9 17.5114 5.98594 16.7734 5.51719 15.8786L7.125 15.0007C7.43437 15.4969 7.71563 15.9167 8.39531 15.9167C9.04219 15.9167 9.45469 15.6877 9.45469 14.7929V8.72388H11.4281V14.8183V14.8183ZM16.0969 17.5114C14.2641 17.5114 13.0781 16.7225 12.5016 15.6877L14.1094 14.848C14.5312 15.4714 15.0844 15.9337 16.0547 15.9337C16.8703 15.9337 17.3953 15.5647 17.3953 15.0516C17.3953 14.4408 16.8609 14.2246 15.9562 13.8641L15.4641 13.6732C14.0391 13.1261 13.0969 12.4348 13.0969 10.9801C13.0969 9.63995 14.2266 8.6221 15.9844 8.6221C17.2406 8.6221 18.1406 9.01652 18.7875 10.0513L17.25 10.942C16.9125 10.3949 16.5469 10.1786 15.9797 10.1786C15.4031 10.1786 15.0375 10.5094 15.0375 10.942C15.0375 11.4763 15.4031 11.6926 16.2516 12.0277L16.7438 12.2185C18.4219 12.8674 19.3641 13.5333 19.3641 15.0261C19.3641 16.6292 17.9672 17.5114 16.0969 17.5114V17.5114Z" fill="#FAF4ED"/>
</svg>
