<svg width="22" height="19" viewBox="0 0 22 19" fill="none" xmlns="http://www.w3.org/2000/svg">
<path d="M8.5 9C10.9853 9 13 6.98528 13 4.5C13 2.01472 10.9853 0 8.5 0C6.01472 0 4 2.01472 4 4.5C4 6.98528 6.01472 9 8.5 9Z" fill="#FAF4ED"/>
<path d="M9.61876 10.222C9.37469 10.211 9.13061 10.2 8.87544 10.2C6.19062 10.2 3.68331 10.937 1.54211 12.202C0.56581 12.774 0 13.852 0 14.985V17.9H10.2733C9.48972 16.7917 9.01633 15.4973 8.90135 14.1486C8.78637 12.7998 9.03391 11.445 9.61876 10.222V10.222ZM20.8018 13.5C20.8018 13.258 20.7685 13.038 20.7353 12.807L22 11.696L20.8906 9.793L19.2819 10.332C18.9269 10.035 18.5275 9.804 18.0837 9.639L17.7509 8H15.532L15.1992 9.639C14.7554 9.804 14.356 10.035 14.001 10.332L12.3923 9.793L11.2829 11.696L12.5477 12.807C12.5144 13.038 12.4811 13.258 12.4811 13.5C12.4811 13.742 12.5144 13.962 12.5477 14.193L11.2829 15.304L12.3923 17.207L14.001 16.668C14.356 16.965 14.7554 17.196 15.1992 17.361L15.532 19H17.7509L18.0837 17.361C18.5275 17.196 18.9269 16.965 19.2819 16.668L20.8906 17.207L22 15.304L20.7353 14.193C20.7685 13.962 20.8018 13.742 20.8018 13.5V13.5ZM16.6415 15.7C15.4211 15.7 14.4226 14.71 14.4226 13.5C14.4226 12.29 15.4211 11.3 16.6415 11.3C17.8618 11.3 18.8603 12.29 18.8603 13.5C18.8603 14.71 17.8618 15.7 16.6415 15.7Z" fill="#FAF4ED"/>
</svg>
