<svg width="19" height="19" viewBox="0 0 19 19" fill="none" xmlns="http://www.w3.org/2000/svg">
<path d="M18.558 1.592L17.408 0.441999C17.2694 0.301709 17.1044 0.190325 16.9224 0.114304C16.7404 0.0382831 16.5452 -0.000862122 16.348 -0.000862122C16.1508 -0.000862122 15.9556 0.0382831 15.7736 0.114304C15.5916 0.190325 15.4266 0.301709 15.288 0.441999L10 5.731V9H13.27L18.558 3.712C18.6983 3.57341 18.8097 3.40835 18.8857 3.2264C18.9617 3.04444 19.0009 2.8492 19.0009 2.652C19.0009 2.4548 18.9617 2.25956 18.8857 2.0776C18.8097 1.89564 18.6983 1.73059 18.558 1.592V1.592ZM12.579 7.45H11.549V6.42L15 2.973L16.03 4.003L12.579 7.45Z" fill="#F5F0EB"/>
<path d="M16 17H2V3H8V1H2C1.47005 1.00158 0.962265 1.2128 0.587535 1.58753C0.212805 1.96227 0.00158273 2.47005 0 3V17C0.00158273 17.5299 0.212805 18.0377 0.587535 18.4125C0.962265 18.7872 1.47005 18.9984 2 19H16C16.5299 18.9984 17.0377 18.7872 17.4125 18.4125C17.7872 18.0377 17.9984 17.5299 18 17V11H16V17Z" fill="#FAF4ED"/>
</svg>
