<?xml version="1.0" encoding="utf-8"?>
<!-- Generator: Adobe Illustrator 26.1.0, SVG Export Plug-In . SVG Version: 6.00 Build 0)  -->
<svg version="1.1" id="Layer_1" xmlns="http://www.w3.org/2000/svg" xmlns:xlink="http://www.w3.org/1999/xlink" x="0px" y="0px"
	 viewBox="0 0 763.2 737.2" style="enable-background:new 0 0 763.2 737.2;" xml:space="preserve">
<style type="text/css">
	.st0{opacity:0.469;}
	.st1{fill:url(#Union_2_00000012437023340139793640000007712267570299719820_);}
</style>
<g id="Group_56" transform="matrix(0.469, -0.883, 0.883, 0.469, -6018.854, 2869.125)" class="st0">
	
		<linearGradient id="Union_2_00000074416048321452148650000004278423828735801261_" gradientUnits="userSpaceOnUse" x1="4699.9097" y1="4415.1104" x2="4700.6914" y2="4414.4727" gradientTransform="matrix(-539.5216 -192.4862 -132.2862 521.0876 3125248.5 -1391527.875)">
		<stop  offset="0.3489" style="stop-color:#A9BFDE"/>
		<stop  offset="1" style="stop-color:#FAF4ED;stop-opacity:0"/>
	</linearGradient>
	<path id="Union_2" style="fill:url(#Union_2_00000074416048321452148650000004278423828735801261_);" d="M5217,4114.5
		c83.5,83.5,99.7,208.8,48.5,308.5c99.9-52,226-36.1,309.9,47.8l28.6,28.6c-93.6,93.6-239.7,102.6-343.4,27
		c73.1,103.5,63.4,247.6-29.3,340.3l-28.6-28.6c-81.8-81.8-99-203.7-51.6-302.3c-98.6,47.4-220.6,30.2-302.3-51.6l-28.6-28.6
		c91.9-91.9,234.5-102.2,337.8-31c-72-103.4-61.9-246.6,30.3-338.8L5217,4114.5z"/>
</g>
</svg>
