<svg id="Layer_1" data-name="Layer 1" xmlns="http://www.w3.org/2000/svg" viewBox="0 0 400 400"><defs><style>.cls-1{fill:#faf4ed;}</style></defs><g id="Group_41" data-name="Group 41"><path id="Rectangle_14" data-name="Rectangle 14" class="cls-1" d="M50.71,187.86l5.56-3.62a120.61,120.61,0,0,1,166.84,35.44h0l-5.56,3.61A120.61,120.61,0,0,1,50.71,187.86Z"/><path id="Rectangle_15" data-name="Rectangle 15" class="cls-1" d="M242.47,63.29,248,59.67h0A120.61,120.61,0,0,1,212.6,226.51L207,230.12h0A120.61,120.61,0,0,1,242.47,63.29Z"/><path id="Rectangle_14-2" data-name="Rectangle 14-2" class="cls-1" d="M202.21,199.7l5.57-3.62h0a120.62,120.62,0,0,1-35.44,166.84l-5.57,3.61h0A120.61,120.61,0,0,1,202.21,199.7Z"/><path id="Rectangle_15-2" data-name="Rectangle 15-2" class="cls-1" d="M191.71,206.53l5.56-3.62a120.61,120.61,0,0,1,166.84,35.44h0L358.54,242a120.59,120.59,0,0,1-166.83-35.43Z"/></g></svg>